HIERARCHY
ROOT Elbow
{
	OFFSET	0.00	0.00	0.00
	CHANNELS 6 Xposition Yposition Zposition Zrotation Xrotation Yrotation
	JOINT L_Wrist
	{
		OFFSET	 0.208349	 0.000000	 0.000000
		CHANNELS 3 Zrotation Xrotation Yrotation
		JOINT L_index_Proximal
		{
			OFFSET	 0.093499	 0.010637	-0.002084
			CHANNELS 3 Zrotation Xrotation Yrotation
			JOINT L_index_b
			{
				OFFSET	 0.033152	 0.000000	 0.000000
				CHANNELS 3 Zrotation Xrotation Yrotation
				JOINT L_index_c
				{
					OFFSET	 0.018651	 0.000000	 0.000000
					CHANNELS 3 Zrotation Xrotation Yrotation
					End Site
					{
						OFFSET	 0.018651	 0.000000	 0.000000
					}
				}
			}
		}
		JOINT L_middle_Proximal
		{
			OFFSET	 0.090632	-0.006115	-0.003750
			CHANNELS 3 Zrotation Xrotation Yrotation
			JOINT L_middle_b
			{
				OFFSET	 0.037194	 0.000000	 0.000000
				CHANNELS 3 Zrotation Xrotation Yrotation
				JOINT L_middle_c
				{
					OFFSET	 0.021943	 0.000000	 0.000000
					CHANNELS 3 Zrotation Xrotation Yrotation
					End Site
					{
						OFFSET	 0.021943	 0.000000	 0.000000
					}
				}
			}
		}
		JOINT L_pinky_Proximal
		{
			OFFSET	 0.074015	-0.035449	-0.000417
			CHANNELS 3 Zrotation Xrotation Yrotation
			JOINT L_pinky_b
			{
				OFFSET	 0.027285	 0.000000	 0.000000
				CHANNELS 3 Zrotation Xrotation Yrotation
				JOINT L_pinky_c
				{
					OFFSET	 0.015093	 0.000000	 0.000000
					CHANNELS 3 Zrotation Xrotation Yrotation
					End Site
					{
						OFFSET	 0.015093	 0.000000	 0.000000
					}
				}
			}
		}
		JOINT L_ring_Proximal
		{
			OFFSET	 0.082801	-0.021859	-0.003750
			CHANNELS 3 Zrotation Xrotation Yrotation
			JOINT L_ring_b
			{
				OFFSET	 0.034478	 0.000000	 0.000000
				CHANNELS 3 Zrotation Xrotation Yrotation
				JOINT L_ring_c
				{
					OFFSET	 0.021377	 0.000000	 0.000000
					CHANNELS 3 Zrotation Xrotation Yrotation
					End Site
					{
						OFFSET	 0.021377	 0.000000	 0.000000
					}
				}
			}
		}
		JOINT L_thumb_Proximal
		{
			OFFSET	 0.030306	 0.018528	 0.004584
			CHANNELS 3 Zrotation Xrotation Yrotation
			JOINT L_thumb_a
			{
				OFFSET	 0.038520	 0.000000	 0.000000
				CHANNELS 3 Zrotation Xrotation Yrotation
				JOINT L_thumb_b
				{
					OFFSET	 0.026310	 0.000000	 0.000000
					CHANNELS 3 Zrotation Xrotation Yrotation
					End Site
					{
						OFFSET	 0.026310	 0.000000	 0.000000
					}
				}
			}
		}
	}
}
MOTION
Frames:    17
Frame Time: 0.01666667
-0.289608	-0.645718	 0.719215	 57.141220	 12.371470	-170.938900	 26.444820	 1.976896	 11.288880	 6.657081	-4.090470	-52.082230	 0.558869	-0.178948	-35.509160	-0.954753	 0.151099	-17.985430	-14.100010	-4.374289	-77.077640	 0.180314	-0.139756	-75.558680	-1.974484	 0.675746	-37.782820	-35.256940	-14.109270	-66.110860	-1.884876	 1.390853	-72.845090	 0.841079	-0.356315	-45.917920	-22.633730	-7.896617	-77.416590	 0.263601	-0.219492	-79.564170	 0.298986	-0.109227	-40.138130	 71.077680	 45.585310	-54.137740	 5.131237	-0.115061	-2.567342	 2.528885	-0.342516	-15.423800
-0.289375	-0.645793	 0.719227	 57.129630	 12.365300	-170.944500	 26.441490	 1.977620	 11.293120	 6.671471	-4.097664	-52.072850	 0.580787	-0.185337	-35.397100	-0.962374	 0.151437	-17.885000	-14.098850	-4.372899	-77.104730	 0.176109	-0.136522	-75.567320	-1.990901	 0.681470	-37.788150	-35.240440	-14.120400	-66.113580	-1.877649	 1.385390	-72.840280	 0.832378	-0.352718	-45.928730	-22.622590	-7.905847	-77.427130	 0.267499	-0.222759	-79.571590	 0.286384	-0.104624	-40.137740	 71.049290	 45.578530	-54.180870	 5.145050	-0.114915	-2.557038	 2.506910	-0.338293	-15.368910
-0.289122	-0.645863	 0.719213	 57.100090	 12.424340	-170.929500	 26.402530	 1.966670	 11.229700	 6.677375	-4.099248	-52.071540	 0.581079	-0.184713	-35.267190	-0.978370	 0.153701	-17.855870	-14.100790	-4.370902	-77.080520	 0.162734	-0.126182	-75.575190	-1.990888	 0.682274	-37.829680	-35.234550	-14.111500	-66.223850	-1.875829	 1.382450	-72.776570	 0.847580	-0.359804	-46.002560	-22.609150	-7.918760	-77.388960	 0.243829	-0.203105	-79.587620	 0.271780	-0.099325	-40.148820	 70.964740	 45.567230	-54.292210	 5.178168	-0.114160	-2.524427	 2.494241	-0.335772	-15.331300
-0.289019	-0.645871	 0.719227	 57.085430	 12.454360	-170.927600	 26.370280	 1.960201	 11.192260	 6.693247	-4.109520	-52.076530	 0.586382	-0.186124	-35.217950	-1.000135	 0.157190	-17.863700	-14.096130	-4.377146	-77.062320	 0.163849	-0.127051	-75.581260	-1.980806	 0.679347	-37.857070	-35.231030	-14.106800	-66.298530	-1.865175	 1.374015	-72.753580	 0.881993	-0.374801	-46.044940	-22.594280	-7.934117	-77.372760	 0.238145	-0.198380	-79.589890	 0.276714	-0.101162	-40.163410	 70.925770	 45.559090	-54.345520	 5.194439	-0.114208	-2.517194	 2.480606	-0.333237	-15.300250
-0.288799	-0.645997	 0.719179	 57.035130	 12.550320	-170.898300	 26.318000	 1.942670	 11.090820	 6.697631	-4.110648	-52.068090	 0.573565	-0.181656	-35.147330	-1.037338	 0.163314	-17.893380	-14.116040	-4.358032	-77.061190	 0.147585	-0.114506	-75.613150	-1.977795	 0.679860	-37.937310	-35.226550	-14.109490	-66.297240	-1.878386	 1.384294	-72.774930	 0.873225	-0.371303	-46.070390	-22.594690	-7.934109	-77.355380	 0.227491	-0.189510	-79.594700	 0.285544	-0.104548	-40.218240	 70.864470	 45.528080	-54.471120	 5.209985	-0.113508	-2.494599	 2.446504	-0.327977	-15.268590
-0.288623	-0.645918	 0.719178	 57.032390	 12.610330	-170.898400	 26.291290	 1.934034	 11.040840	 6.692530	-4.108496	-52.076720	 0.557171	-0.176316	-35.120270	-1.055400	 0.166151	-17.892680	-14.129530	-4.345600	-77.061380	 0.135039	-0.104800	-75.625850	-1.992106	 0.684842	-37.940480	-35.222990	-14.115180	-66.267850	-1.889716	 1.392837	-72.782810	 0.862062	-0.366483	-46.062680	-22.599890	-7.929785	-77.348590	 0.222180	-0.185089	-79.592250	 0.289902	-0.106167	-40.228350	 70.851690	 45.503880	-54.532040	 5.205767	-0.113112	-2.487757	 2.422764	-0.324841	-15.270350
-0.288702	-0.645794	 0.719195	 57.008170	 12.681220	-170.895200	 26.256290	 1.921347	 10.967440	 6.673581	-4.098212	-52.079360	 0.539025	-0.170682	-35.140300	-1.088991	 0.171910	-17.941210	-14.141430	-4.337842	-77.025590	 0.163162	-0.126562	-75.600980	-1.966257	 0.676223	-37.954490	-35.229270	-14.106790	-66.310210	-1.892776	 1.394603	-72.763660	 0.854205	-0.363304	-46.081220	-22.598430	-7.932717	-77.332830	 0.237311	-0.197704	-79.596530	 0.297354	-0.109021	-40.269810	 70.812930	 45.484200	-54.608380	 5.210922	-0.115019	-2.526895	 2.394275	-0.321377	-15.287840
-0.288665	-0.645729	 0.719203	 57.014210	 12.695750	-170.901500	 26.246650	 1.918599	 10.951550	 6.665983	-4.092387	-52.061500	 0.550047	-0.173905	-35.091400	-1.069877	 0.168228	-17.871950	-14.138620	-4.342973	-76.993190	 0.193299	-0.149789	-75.543550	-1.965575	 0.675500	-37.929340	-35.229360	-14.109010	-66.289100	-1.892700	 1.394239	-72.750890	 0.858907	-0.365148	-46.062080	-22.594030	-7.938848	-77.301670	 0.254838	-0.212180	-79.563630	 0.289994	-0.106292	-40.258770	 70.758030	 45.485640	-54.660020	 5.223954	-0.117992	-2.585339	 2.352275	-0.314670	-15.237270
-0.288668	-0.645702	 0.719254	 57.007960	 12.687630	-170.913700	 26.244690	 1.917955	 10.947840	 6.659734	-4.087789	-52.038650	 0.555062	-0.175385	-35.069400	-1.094426	 0.171717	-17.833260	-14.125940	-4.358060	-76.962230	 0.229578	-0.177620	-75.456690	-1.959468	 0.672361	-37.874690	-35.211110	-14.134360	-66.180520	-1.878962	 1.383496	-72.726880	 0.827238	-0.350676	-45.945000	-22.593130	-7.942111	-77.279100	 0.282666	-0.235110	-79.507670	 0.310090	-0.113550	-40.222050	 70.641300	 45.462900	-54.819820	 5.253345	-0.121309	-2.643725	 2.273355	-0.301357	-15.099700
-0.288616	-0.645775	 0.719332	 57.010730	 12.648470	-170.923700	 26.269370	 1.915459	 10.933400	 6.662715	-4.082915	-51.958060	 0.580777	-0.183181	-35.011760	-1.097349	 0.171917	-17.807800	-14.090580	-4.394277	-76.914180	 0.277486	-0.214437	-75.391010	-1.923145	 0.658701	-37.810850	-35.160620	-14.177970	-66.108020	-1.839306	 1.352845	-72.668720	 0.862504	-0.365484	-45.929490	-22.564990	-7.969722	-77.252890	 0.331770	-0.275710	-79.452430	 0.335074	-0.122527	-40.173140	 70.414600	 45.492600	-54.987300	 5.249848	-0.121824	-2.656718	 2.209047	-0.290984	-15.007040
-0.288614	-0.645899	 0.719318	 56.997890	 12.627180	-170.917100	 26.298970	 1.913531	 10.922200	 6.652099	-4.074913	-51.922760	 0.582906	-0.183790	-35.000170	-1.088775	 0.170637	-17.814060	-14.072930	-4.413113	-76.902280	 0.294967	-0.227827	-75.361160	-1.905144	 0.652153	-37.790320	-35.145680	-14.190620	-66.104120	-1.828557	 1.344452	-72.648650	 0.884234	-0.374608	-45.919780	-22.550440	-7.984772	-77.254500	 0.355207	-0.295033	-79.425840	 0.353620	-0.129286	-40.164200	 70.296700	 45.489510	-55.110450	 5.257833	-0.123421	-2.687880	 2.169390	-0.285173	-14.975740
-0.288674	-0.645908	 0.719299	 57.018110	 12.576550	-170.915000	 26.375320	 1.910485	 10.904740	 6.652027	-4.070043	-51.854390	 0.591984	-0.186422	-34.959690	-1.072318	 0.168120	-17.820300	-14.037700	-4.447829	-76.887210	 0.338970	-0.261440	-75.282740	-1.863918	 0.637456	-37.758460	-35.105910	-14.227060	-66.035740	-1.797271	 1.320348	-72.603230	 0.905104	-0.383006	-45.872610	-22.530020	-8.005034	-77.249720	 0.413316	-0.342831	-79.349330	 0.385988	-0.140966	-40.125140	 70.070750	 45.496410	-55.323520	 5.264007	-0.122932	-2.673566	 2.103944	-0.275334	-14.909880
-0.288598	-0.645891	 0.719333	 57.043790	 12.540290	-170.915000	 26.417330	 1.912018	 10.913570	 6.648466	-4.066780	-51.840100	 0.596050	-0.187702	-34.959670	-1.057429	 0.165882	-17.830300	-14.018130	-4.466927	-76.868910	 0.358969	-0.276662	-75.244380	-1.860115	 0.635851	-37.741640	-35.098480	-14.231350	-66.041560	-1.789559	 1.314059	-72.577350	 0.917915	-0.388366	-45.866090	-22.517110	-8.016837	-77.245390	 0.430657	-0.357058	-79.324570	 0.392052	-0.143172	-40.123470	 69.988610	 45.511380	-55.375520	 5.272150	-0.121876	-2.646811	 2.088387	-0.273106	-14.898420
-0.288468	-0.646048	 0.719451	 57.067310	 12.464650	-170.931000	 26.485670	 1.913070	 10.919600	 6.644734	-4.061627	-51.825720	 0.589700	-0.185879	-34.991230	-1.046364	 0.164869	-17.908200	-13.982080	-4.499474	-76.846280	 0.399147	-0.307413	-75.205470	-1.813547	 0.620329	-37.764160	-35.077800	-14.241180	-66.070330	-1.769554	 1.298609	-72.544650	 0.952882	-0.403098	-45.859520	-22.489260	-8.039372	-77.259170	 0.477239	-0.395417	-79.285720	 0.421229	-0.153871	-40.135360	 69.853680	 45.500360	-55.539390	 5.304031	-0.122957	-2.653855	 2.062590	-0.269380	-14.880290
-0.288550	-0.646093	 0.719472	 57.081940	 12.423360	-170.937500	 26.538460	 1.913878	 10.924410	 6.631409	-4.053289	-51.793710	 0.560182	-0.176462	-34.970120	-1.049002	 0.165289	-17.908920	-13.963940	-4.520493	-76.823800	 0.424329	-0.326769	-75.198590	-1.795523	 0.614480	-37.782430	-35.077160	-14.241920	-66.091050	-1.763852	 1.293794	-72.518250	 0.949782	-0.401774	-45.857390	-22.477650	-8.052711	-77.260730	 0.487623	-0.403841	-79.262900	 0.413941	-0.151315	-40.159520	 69.784710	 45.506310	-55.593020	 5.322673	-0.123199	-2.650029	 2.063949	-0.269587	-14.881330
-0.288766	-0.646092	 0.719735	 57.116600	 12.301970	-170.956200	 26.612830	 1.916470	 10.939230	 6.658655	-4.060700	-51.715280	 0.594319	-0.186199	-34.790260	-1.048103	 0.163584	-17.741660	-13.924690	-4.553505	-76.831150	 0.457163	-0.351488	-75.109120	-1.777481	 0.608330	-37.783700	-35.051910	-14.247960	-66.186050	-1.718023	 1.258366	-72.440120	 0.977930	-0.413697	-45.858760	-22.433830	-8.090372	-77.262770	 0.513268	-0.424396	-79.171880	 0.400977	-0.146579	-40.159240	 69.631840	 45.488110	-55.791210	 5.332345	-0.122764	-2.635890	 1.981197	-0.256661	-14.762140
-0.288903	-0.646085	 0.719777	 57.124110	 12.299910	-170.946700	 26.653840	 1.915221	 10.932080	 6.668554	-4.064968	-51.692240	 0.596749	-0.186674	-34.740520	-1.056661	 0.164942	-17.743390	-13.908140	-4.571439	-76.804210	 0.479554	-0.368545	-75.085840	-1.766721	 0.604579	-37.779740	-35.049730	-14.246540	-66.221210	-1.716930	 1.256908	-72.411410	 0.987287	-0.417598	-45.853580	-22.411070	-8.113500	-77.240550	 0.527924	-0.436343	-79.150260	 0.400368	-0.146337	-40.155370	 69.559160	 45.498340	-55.844630	 5.341547	-0.123404	-2.644680	 1.973812	-0.255424	-14.746340
